<svg xmlns="http://www.w3.org/2000/svg" viewBox="0 0 640 641" role="img" aria-label="Silhueta vetorial simplificada da arte central">
  <path d="M 300.5 2.5
    L 285.5 6.5
    L 281.5 10.5
    L 277.5 14.5
    L 270.5 18.5
    L 260.5 22.5
    L 251.5 26.5
    L 245.5 30.5
    L 239.5 34.5
    L 235.5 38.5
    L 231.5 42.5
    L 227.5 46.5
    L 224.5 50.5
    L 221.5 54.5
    L 218.5 58.5
    L 216.5 62.5
    L 213.5 66.5
    L 211.5 70.5
    L 208.5 74.5
    L 205.5 78.5
    L 202.5 82.5
    L 199.5 86.5
    L 198.5 90.5
    L 197.5 94.5
    L 197.5 98.5
    L 196.5 102.5
    L 196.5 106.5
    L 196.5 110.5
    L 196.5 114.5
    L 197.5 118.5
    L 151.5 122.5
    L 143.5 126.5
    L 138.5 130.5
    L 137.5 134.5
    L 129.5 138.5
    L 129.5 142.5
    L 132.5 146.5
    L 150.5 150.5
    L 153.5 154.5
    L 73.5 158.5
    L 69.5 162.5
    L 67.5 166.5
    L 57.5 170.5
    L 53.5 174.5
    L 52.5 178.5
    L 51.5 182.5
    L 52.5 186.5
    L 68.5 190.5
    L 66.5 194.5
    L 65.5 198.5
    L 66.5 202.5
    L 77.5 206.5
    L 85.5 210.5
    L 84.5 214.5
    L 82.5 218.5
    L 64.5 222.5
    L 62.5 226.5
    L 61.5 230.5
    L 51.5 234.5
    L 49.5 238.5
    L 48.5 242.5
    L 49.5 246.5
    L 53.5 250.5
    L 54.5 254.5
    L 54.5 258.5
    L 56.5 262.5
    L 62.5 266.5
    L 92.5 270.5
    L 87.5 274.5
    L 78.5 278.5
    L 77.5 282.5
    L 78.5 286.5
    L 76.5 290.5
    L 76.5 294.5
    L 78.5 298.5
    L 82.5 302.5
    L 70.5 306.5
    L 64.5 310.5
    L 63.5 314.5
    L 63.5 318.5
    L 53.5 322.5
    L 49.5 326.5
    L 48.5 330.5
    L 48.5 334.5
    L 50.5 338.5
    L 58.5 342.5
    L 58.5 346.5
    L 58.5 350.5
    L 63.5 354.5
    L 84.5 358.5
    L 80.5 362.5
    L 79.5 366.5
    L 79.5 370.5
    L 79.5 374.5
    L 80.5 378.5
    L 82.5 382.5
    L 86.5 386.5
    L 91.5 390.5
    L 110.5 394.5
    L 190.5 398.5
    L 190.5 402.5
    L 191.5 406.5
    L 192.5 410.5
    L 192.5 414.5
    L 193.5 418.5
    L 194.5 422.5
    L 195.5 426.5
    L 196.5 430.5
    L 197.5 434.5
    L 198.5 438.5
    L 200.5 442.5
    L 201.5 446.5
    L 202.5 450.5
    L 204.5 454.5
    L 206.5 458.5
    L 207.5 462.5
    L 209.5 466.5
    L 211.5 470.5
    L 213.5 474.5
    L 214.5 478.5
    L 217.5 482.5
    L 219.5 486.5
    L 222.5 490.5
    L 224.5 494.5
    L 227.5 498.5
    L 230.5 502.5
    L 233.5 506.5
    L 236.5 510.5
    L 240.5 514.5
    L 243.5 518.5
    L 247.5 522.5
    L 251.5 526.5
    L 255.5 530.5
    L 260.5 534.5
    L 265.5 538.5
    L 270.5 542.5
    L 276.5 546.5
    L 282.5 550.5
    L 290.5 554.5
    L 298.5 558.5
    L 307.5 562.5
    L 317.5 566.5
    L 327.5 570.5
    L 369.5 580.5
    L 344.5 568.5
    L 355.5 564.5
    L 364.5 560.5
    L 372.5 556.5
    L 379.5 552.5
    L 386.5 548.5
    L 392.5 544.5
    L 398.5 540.5
    L 403.5 536.5
    L 407.5 532.5
    L 412.5 528.5
    L 416.5 524.5
    L 420.5 520.5
    L 424.5 516.5
    L 427.5 512.5
    L 431.5 508.5
    L 434.5 504.5
    L 437.5 500.5
    L 439.5 496.5
    L 442.5 492.5
    L 444.5 488.5
    L 447.5 484.5
    L 449.5 480.5
    L 451.5 476.5
    L 453.5 472.5
    L 455.5 468.5
    L 456.5 464.5
    L 458.5 460.5
    L 459.5 456.5
    L 461.5 452.5
    L 462.5 448.5
    L 463.5 444.5
    L 465.5 440.5
    L 466.5 436.5
    L 467.5 432.5
    L 468.5 428.5
    L 469.5 424.5
    L 470.5 420.5
    L 471.5 416.5
    L 544.5 412.5
    L 472.5 408.5
    L 499.5 404.5
    L 501.5 400.5
    L 536.5 396.5
    L 546.5 392.5
    L 553.5 388.5
    L 559.5 384.5
    L 564.5 380.5
    L 568.5 376.5
    L 571.5 372.5
    L 574.5 368.5
    L 577.5 364.5
    L 578.5 360.5
    L 579.5 356.5
    L 580.5 352.5
    L 580.5 348.5
    L 578.5 344.5
    L 593.5 340.5
    L 595.5 336.5
    L 605.5 332.5
    L 608.5 328.5
    L 609.5 324.5
    L 608.5 320.5
    L 595.5 316.5
    L 594.5 312.5
    L 590.5 308.5
    L 578.5 304.5
    L 586.5 300.5
    L 591.5 296.5
    L 596.5 292.5
    L 599.5 288.5
    L 601.5 284.5
    L 602.5 280.5
    L 602.5 276.5
    L 600.5 272.5
    L 581.5 268.5
    L 564.5 264.5
    L 577.5 260.5
    L 580.5 256.5
    L 581.5 252.5
    L 580.5 248.5
    L 579.5 244.5
    L 577.5 240.5
    L 558.5 236.5
    L 551.5 232.5
    L 525.5 228.5
    L 522.5 224.5
    L 521.5 220.5
    L 526.5 216.5
    L 566.5 212.5
    L 568.5 208.5
    L 569.5 204.5
    L 569.5 200.5
    L 575.5 196.5
    L 578.5 192.5
    L 579.5 188.5
    L 579.5 184.5
    L 576.5 180.5
    L 562.5 176.5
    L 560.5 172.5
    L 553.5 168.5
    L 493.5 164.5
    L 496.5 160.5
    L 497.5 156.5
    L 497.5 152.5
    L 495.5 148.5
    L 491.5 144.5
    L 496.5 140.5
    L 498.5 136.5
    L 496.5 132.5
    L 491.5 128.5
    L 477.5 124.5
    L 464.5 120.5
    L 422.5 116.5
    L 420.5 112.5
    L 418.5 108.5
    L 416.5 104.5
    L 414.5 100.5
    L 413.5 96.5
    L 411.5 92.5
    L 408.5 88.5
    L 406.5 84.5
    L 404.5 80.5
    L 402.5 76.5
    L 399.5 72.5
    L 397.5 68.5
    L 394.5 64.5
    L 391.5 60.5
    L 389.5 56.5
    L 386.5 52.5
    L 382.5 48.5
    L 379.5 44.5
    L 374.5 40.5
    L 369.5 36.5
    L 363.5 32.5
    L 357.5 28.5
    L 356.5 24.5
    L 352.5 20.5
    L 344.5 16.5
    L 338.5 12.5
    L 327.5 8.5
    L 320.5 4.5
    Z" fill="#d4af37" stroke="#8f6b1b" stroke-width="3"/>
</svg>
